<?xml version="1.0" encoding="iso-8859-1"?>
<!-- Generator: Adobe Illustrator 19.0.0, SVG Export Plug-In . SVG Version: 6.00 Build 0)  -->
<svg version="1.1" id="Capa_1" xmlns="http://www.w3.org/2000/svg" xmlns:xlink="http://www.w3.org/1999/xlink" x="0px" y="0px"
	 viewBox="0 0 512 512" style="enable-background:new 0 0 512 512;" xml:space="preserve">
<path style="fill:#212F3F;" d="M441.379,8.828H70.621H26.492C11.864,8.828,0,20.692,0,35.319v291.302h70.621h132.414h105.931
	h132.414H512V35.319c0-14.627-11.864-26.492-26.492-26.492H441.379z"/>
<rect x="35.31" y="44.138" style="fill:#FFFFFF;" width="441.379" height="291.31"/>
<g>
	<path style="fill:#25AE88;" d="M70.621,300.138c-4.873,0-8.828-3.955-8.828-8.828c0-69.711,24.258-114.759,61.793-114.759
		c25.988,0,44.138-39.927,44.138-97.103c0-4.873,3.955-8.828,8.828-8.828c4.873,0,8.828,3.955,8.828,8.828
		c0,69.711-24.258,114.759-61.793,114.759c-25.988,0-44.138,39.927-44.138,97.103C79.448,296.183,75.494,300.138,70.621,300.138z"/>
	<path style="fill:#25AE88;" d="M176.552,300.138c-4.873,0-8.828-3.955-8.828-8.828c0-57.176-18.15-97.103-44.138-97.103
		c-37.535,0-61.793-45.047-61.793-114.759c0-4.873,3.955-8.828,8.828-8.828s8.828,3.955,8.828,8.828
		c0,57.176,18.15,97.103,44.138,97.103c37.535,0,61.793,45.047,61.793,114.759C185.379,296.183,181.425,300.138,176.552,300.138z"/>
	<path style="fill:#25AE88;" d="M175.245,114.759H71.927c-4.873,0-8.828-3.955-8.828-8.828c0-4.873,3.955-8.828,8.828-8.828h103.327
		c4.873,0,8.828,3.955,8.828,8.828C184.082,110.804,180.127,114.759,175.245,114.759z"/>
	<path style="fill:#25AE88;" d="M168.095,150.069H79.078c-4.873,0-8.828-3.955-8.828-8.828s3.955-8.828,8.828-8.828h89.017
		c4.873,0,8.828,3.955,8.828,8.828S172.968,150.069,168.095,150.069z"/>
	<path style="fill:#25AE88;" d="M168.095,238.345H79.078c-4.873,0-8.828-3.955-8.828-8.828s3.955-8.828,8.828-8.828h89.017
		c4.873,0,8.828,3.955,8.828,8.828S172.968,238.345,168.095,238.345z"/>
	<path style="fill:#25AE88;" d="M175.245,273.655H71.927c-4.873,0-8.828-3.955-8.828-8.828S67.054,256,71.927,256h103.327
		c4.873,0,8.828,3.955,8.828,8.828S180.127,273.655,175.245,273.655z"/>
</g>
<rect x="326.621" y="79.448" style="fill:#75348B;" width="105.931" height="35.31"/>
<rect x="326.621" y="220.69" style="fill:#CB465F;" width="35.31" height="35.31"/>
<rect x="238.345" y="79.448" style="fill:#DD352E;" width="35.31" height="35.31"/>
<rect x="238.345" y="256" style="fill:#366DB6;" width="35.31" height="35.31"/>
<rect x="238.345" y="150.069" style="fill:#EBBA16;" width="35.31" height="70.621"/>
<rect x="397.241" y="220.69" style="fill:#C6E2F7;" width="35.31" height="35.31"/>
<path style="fill:#7383BF;" d="M397.241,158.897h-70.621c-4.873,0-8.828-3.955-8.828-8.828c0-4.873,3.955-8.828,8.828-8.828h70.621
	c4.873,0,8.828,3.955,8.828,8.828C406.069,154.942,402.114,158.897,397.241,158.897z"/>
<path style="fill:#FC3952;" d="M432.552,194.207H326.621c-4.873,0-8.828-3.955-8.828-8.828c0-4.873,3.955-8.828,8.828-8.828h105.931
	c4.873,0,8.828,3.955,8.828,8.828C441.379,190.252,437.425,194.207,432.552,194.207z"/>
<path style="fill:#DC691D;" d="M432.552,300.138H326.621c-4.873,0-8.828-3.955-8.828-8.828c0-4.873,3.955-8.828,8.828-8.828h105.931
	c4.873,0,8.828,3.955,8.828,8.828C441.379,296.183,437.425,300.138,432.552,300.138z"/>
<path style="fill:#E7ECED;" d="M370.759,503.172H141.241c-9.754,0-17.655-7.901-17.655-17.655l0,0
	c0-9.754,7.901-17.655,17.655-17.655h229.517c9.754,0,17.655,7.901,17.655,17.655l0,0
	C388.414,495.272,380.513,503.172,370.759,503.172z"/>
<path style="fill:#AFB6BB;" d="M300.138,397.241v-17.655h-88.276v17.655c0,39.036-13.93,70.621-52.966,70.621h194.207
	C314.068,467.862,300.138,436.277,300.138,397.241z"/>
<path style="fill:#E7ECED;" d="M485.508,397.241H26.492C11.864,397.241,0,385.377,0,370.75v-52.957h512v52.957
	C512,385.377,500.136,397.241,485.508,397.241z"/>
<path style="fill:#AFB6BB;" d="M282.483,370.759h-52.966c-4.873,0-8.828-3.955-8.828-8.828s3.955-8.828,8.828-8.828h52.966
	c4.873,0,8.828,3.955,8.828,8.828S287.356,370.759,282.483,370.759z"/>
<g>
</g>
<g>
</g>
<g>
</g>
<g>
</g>
<g>
</g>
<g>
</g>
<g>
</g>
<g>
</g>
<g>
</g>
<g>
</g>
<g>
</g>
<g>
</g>
<g>
</g>
<g>
</g>
<g>
</g>
</svg>
