<?xml version="1.0" encoding="iso-8859-1"?>
<!-- Generator: Adobe Illustrator 19.0.0, SVG Export Plug-In . SVG Version: 6.00 Build 0)  -->
<svg version="1.1" id="Capa_1" xmlns="http://www.w3.org/2000/svg" xmlns:xlink="http://www.w3.org/1999/xlink" x="0px" y="0px"
	 viewBox="0 0 460.288 460.288" style="enable-background:new 0 0 460.288 460.288;" xml:space="preserve">
<g>
	<path style="fill:#B3B3B3;" d="M294.638,307.78l11.314-11.314l32.001,32.001l-11.314,11.314L294.638,307.78z"/>
	<path style="fill:#B3B3B3;" d="M412.288,358.144h-16v-16H270.432v8h-16v-16c0-4.418,3.582-8,8-8h141.856c4.418,0,8,3.582,8,8
		V358.144z"/>
	<path style="fill:#B3B3B3;" d="M36.288,310.144h16v48h-16V310.144z"/>
	<path style="fill:#B3B3B3;" d="M42.26,318.413l79.999-21.01l4.062,15.467l-79.999,21.01L42.26,318.413z"/>
	<path style="fill:#B3B3B3;" d="M308.288,190.144h16v40h-16V190.144z"/>
</g>
<g>
	<path style="fill:#454545;" d="M212.288,118.144h16v80h-16V118.144z"/>
	<path style="fill:#454545;" d="M244.288,118.144h16v32h-16V118.144z"/>
	<path style="fill:#454545;" d="M196.288,158.144h48v16h-48V158.144z"/>
	<path style="fill:#454545;" d="M260.288,230.144h-16v-24h-48v24h-16v-32c0-4.418,3.582-8,8-8h64c4.418,0,8,3.582,8,8V230.144z"/>
</g>
<path style="fill:#777777;" d="M83.032,236.448l-13.488-8.608l56.992-89.288L77.192,73.856l-49.336,84.96l-13.84-8l55.352-95.32
	c1.331-2.319,3.732-3.82,6.4-4c2.661-0.131,5.221,1.038,6.864,3.136l60,78.664c2.035,2.668,2.188,6.323,0.384,9.152L83.032,236.448z
	"/>
<g>
	<path style="fill:#454545;" d="M42.144,430.144C18.869,430.144,0,411.276,0,388c0-23.275,18.869-42.144,42.144-42.144
		S84.288,364.725,84.288,388C84.266,411.266,65.41,430.122,42.144,430.144z M42.144,361.864C27.705,361.864,16,373.569,16,388.008
		c0,14.439,11.705,26.144,26.144,26.144s26.144-11.705,26.144-26.144c0-0.003,0-0.005,0-0.008
		C68.27,373.57,56.574,361.877,42.144,361.864z"/>
	<path style="fill:#454545;" d="M262.432,430.144c-23.275,0.004-42.148-18.861-42.152-42.136
		c-0.004-23.275,18.861-42.148,42.136-42.152c23.275-0.004,42.148,18.861,42.152,42.136c0,0.003,0,0.005,0,0.008
		C304.542,411.261,285.693,430.113,262.432,430.144L262.432,430.144z M262.432,361.864c-14.439-0.004-26.148,11.697-26.152,26.136
		s11.697,26.148,26.136,26.152s26.148-11.697,26.152-26.136c0-0.005,0-0.011,0-0.016
		C288.55,373.573,276.859,361.882,262.432,361.864z"/>
	<path style="fill:#454545;" d="M406.144,430.144C382.868,430.144,364,411.275,364,388s18.869-42.144,42.144-42.144
		s42.144,18.868,42.144,42.144C448.266,411.266,429.41,430.122,406.144,430.144z M406.144,361.864
		c-14.439,0-26.144,11.705-26.144,26.144s11.705,26.144,26.144,26.144s26.144-11.705,26.144-26.144c0-0.003,0-0.005,0-0.008
		C432.27,373.57,420.574,361.877,406.144,361.864z"/>
</g>
<path style="fill:#777777;" d="M460.288,216.152v105h-400v-105H460.288z"/>
<path style="fill:#B3B3B3;" d="M172.288,70.144h88v56h-88V70.144z"/>
<circle style="fill:#168DE2;" cx="208.288" cy="98.144" r="12"/>
<g>
	<path style="fill:#B3B3B3;" d="M372,150.144h72.288v82H372V150.144z"/>
	<path style="fill:#B3B3B3;" d="M4.288,145.808h40v36.336h-40V145.808z"/>
	<circle style="fill:#B3B3B3;" cx="76.288" cy="62.144" r="16"/>
	<circle style="fill:#B3B3B3;" cx="132.288" cy="142.144" r="16"/>
</g>
<path style="fill:#777777;" d="M396.288,30.144h16v120h-16V30.144z"/>
<g>
	<path style="fill:#B3B3B3;" d="M388.288,54.144h32v16h-32V54.144z"/>
	<path style="fill:#B3B3B3;" d="M388.288,86.144h32v16h-32V86.144z"/>
	<path style="fill:#B3B3B3;" d="M116.288,278.144h-16v-16c0-4.418,3.582-8,8-8h16v16h-8V278.144z"/>
	<path style="fill:#B3B3B3;" d="M140.288,254.144h16v16h-16V254.144z"/>
</g>
<g>
	<path style="fill:#454545;" d="M228.288,375.864h68.28v16h-68.28V375.864z"/>
	<path style="fill:#454545;" d="M8.008,375.864h68.28v16H8.008V375.864z"/>
	<path style="fill:#454545;" d="M370.144,375.864h68.28v16h-68.28V375.864z"/>
</g>
<g>
	<path style="fill:#B3B3B3;" d="M388.288,262.144h32v16h-32V262.144z"/>
	<path style="fill:#B3B3B3;" d="M356.288,262.144h16v16h-16V262.144z"/>
</g>
<g>
</g>
<g>
</g>
<g>
</g>
<g>
</g>
<g>
</g>
<g>
</g>
<g>
</g>
<g>
</g>
<g>
</g>
<g>
</g>
<g>
</g>
<g>
</g>
<g>
</g>
<g>
</g>
<g>
</g>
</svg>
